<svg width="24" height="24" viewBox="0 0 24 24" fill="none" xmlns="http://www.w3.org/2000/svg">
<path fill-rule="evenodd" clip-rule="evenodd" d="M12.395 20.981C12.4656 21.0063 12.5359 21.0063 12.6059 20.981C13.5162 20.6675 20 18.1671 20 10.7903V4.18875C20.0002 4.10385 19.9723 4.02133 19.9208 3.95435C19.8694 3.88737 19.7972 3.83979 19.7159 3.8192L12.5909 2.01134C12.5312 1.99622 12.4688 1.99622 12.4091 2.01134L5.28406 3.8192C5.20278 3.83979 5.13064 3.88737 5.07916 3.95435C5.02767 4.02133 4.9998 4.10385 5 4.18875V10.7894C5 18.092 11.4866 20.657 12.395 20.981ZM14.5822 11.4382L17.0684 9.39857C17.1275 9.27886 17.1866 9.15916 17.1866 9.03851C17.1275 8.91881 17.0084 8.79911 16.8903 8.79911H13.8125L12.8066 6.0403C12.7475 5.91965 12.6284 5.79995 12.5103 5.79995C12.3922 5.79995 12.2741 5.91965 12.215 6.0403L11.2681 8.79911H8.13125C8.01313 8.79911 7.895 8.91881 7.83594 9.03851C7.80915 9.10298 7.80635 9.17511 7.82808 9.2415C7.8498 9.30789 7.89457 9.36404 7.95406 9.39951L10.3812 11.3765L9.61156 14.3756C9.58503 14.44 9.58238 14.5119 9.60409 14.5781C9.6258 14.6443 9.67041 14.7002 9.72969 14.7357C9.7843 14.7654 9.84534 14.781 9.90734 14.781C9.96935 14.781 10.0304 14.7654 10.085 14.7357L12.5713 12.9364L14.9975 14.7357C15.0566 14.7955 15.1156 14.7955 15.1756 14.7955C15.2347 14.7955 15.2937 14.7955 15.3528 14.7357C15.4121 14.7002 15.4567 14.6443 15.4784 14.5781C15.5001 14.5119 15.4975 14.44 15.4709 14.3756L14.5822 11.4382Z" fill="white"/>
</svg>
