<svg width="36" height="36" viewBox="0 0 36 36" fill="none" xmlns="http://www.w3.org/2000/svg">
<path fill-rule="evenodd" clip-rule="evenodd" d="M13.5 7.875C13.5 6.97989 13.8556 6.12145 14.4885 5.48851C15.1214 4.85558 15.9799 4.5 16.875 4.5H19.125C20.0201 4.5 20.8786 4.85558 21.5115 5.48851C22.1444 6.12145 22.5 6.97989 22.5 7.875V10.125C22.5 11.0201 22.1444 11.8786 21.5115 12.5115C20.8786 13.1444 20.0201 13.5 19.125 13.5V15.75H31.5C31.7984 15.75 32.0845 15.8685 32.2955 16.0795C32.5065 16.2905 32.625 16.5766 32.625 16.875V19.125C32.625 19.4234 32.5065 19.7095 32.2955 19.9205C32.0845 20.1315 31.7984 20.25 31.5 20.25C31.2016 20.25 30.9155 20.1315 30.7045 19.9205C30.4935 19.7095 30.375 19.4234 30.375 19.125V18H19.125V19.125C19.125 19.4234 19.0065 19.7095 18.7955 19.9205C18.5845 20.1315 18.2984 20.25 18 20.25C17.7016 20.25 17.4155 20.1315 17.2045 19.9205C16.9935 19.7095 16.875 19.4234 16.875 19.125V18H5.625V19.125C5.625 19.4234 5.50647 19.7095 5.2955 19.9205C5.08452 20.1315 4.79837 20.25 4.5 20.25C4.20163 20.25 3.91548 20.1315 3.7045 19.9205C3.49353 19.7095 3.375 19.4234 3.375 19.125V16.875C3.375 16.5766 3.49353 16.2905 3.7045 16.0795C3.91548 15.8685 4.20163 15.75 4.5 15.75H16.875V13.5C15.9799 13.5 15.1214 13.1444 14.4885 12.5115C13.8556 11.8786 13.5 11.0201 13.5 10.125V7.875ZM0 25.875C0 24.9799 0.355579 24.1214 0.988515 23.4885C1.62145 22.8556 2.47989 22.5 3.375 22.5H5.625C6.52011 22.5 7.37855 22.8556 8.01149 23.4885C8.64442 24.1214 9 24.9799 9 25.875V28.125C9 29.0201 8.64442 29.8786 8.01149 30.5115C7.37855 31.1444 6.52011 31.5 5.625 31.5H3.375C2.47989 31.5 1.62145 31.1444 0.988515 30.5115C0.355579 29.8786 0 29.0201 0 28.125L0 25.875ZM13.5 25.875C13.5 24.9799 13.8556 24.1214 14.4885 23.4885C15.1214 22.8556 15.9799 22.5 16.875 22.5H19.125C20.0201 22.5 20.8786 22.8556 21.5115 23.4885C22.1444 24.1214 22.5 24.9799 22.5 25.875V28.125C22.5 29.0201 22.1444 29.8786 21.5115 30.5115C20.8786 31.1444 20.0201 31.5 19.125 31.5H16.875C15.9799 31.5 15.1214 31.1444 14.4885 30.5115C13.8556 29.8786 13.5 29.0201 13.5 28.125V25.875ZM27 25.875C27 24.9799 27.3556 24.1214 27.9885 23.4885C28.6214 22.8556 29.4799 22.5 30.375 22.5H32.625C33.5201 22.5 34.3786 22.8556 35.0115 23.4885C35.6444 24.1214 36 24.9799 36 25.875V28.125C36 29.0201 35.6444 29.8786 35.0115 30.5115C34.3786 31.1444 33.5201 31.5 32.625 31.5H30.375C29.4799 31.5 28.6214 31.1444 27.9885 30.5115C27.3556 29.8786 27 29.0201 27 28.125V25.875Z" fill="#F5F7FD"/>
</svg>
