<svg width="36" height="36" viewBox="0 0 36 36" fill="none" xmlns="http://www.w3.org/2000/svg">
<path d="M15 8.25131C14.9998 7.10238 15.2928 5.97242 15.8514 4.96841C16.41 3.9644 17.2155 3.11958 18.1919 2.51395C19.1682 1.90832 20.283 1.56192 21.4306 1.50756C22.5783 1.4532 23.7208 1.69267 24.75 2.20331C25.7791 1.69328 26.9214 1.45429 28.0686 1.50896C29.2159 1.56362 30.3302 1.91013 31.3062 2.51569C32.2821 3.12125 33.0874 3.96583 33.6459 4.9695C34.2043 5.97318 34.4974 7.10274 34.4974 8.25131C34.4974 9.39987 34.2043 10.5294 33.6459 11.5331C33.0874 12.5368 32.2821 13.3814 31.3062 13.9869C30.3302 14.5925 29.2159 14.939 28.0686 14.9937C26.9214 15.0483 25.7791 14.8093 24.75 14.2993C23.7208 14.8099 22.5783 15.0494 21.4306 14.9951C20.283 14.9407 19.1682 14.5943 18.1919 13.9887C17.2155 13.383 16.41 12.5382 15.8514 11.5342C15.2928 10.5302 14.9998 9.40023 15 8.25131ZM27.375 11.9833C27.498 11.9953 27.623 12.0013 27.75 12.0013C28.2576 12.0002 28.7597 11.8961 29.2258 11.6952C29.692 11.4944 30.1125 11.201 30.4619 10.8328C30.8113 10.4646 31.0823 10.0294 31.2586 9.55337C31.4348 9.07737 31.5126 8.57055 31.4872 8.0636C31.4618 7.55666 31.3337 7.06015 31.1108 6.60415C30.8878 6.14816 30.5746 5.74217 30.1901 5.41079C29.8057 5.07941 29.3579 4.82953 28.874 4.67629C28.3901 4.52305 27.8801 4.46965 27.375 4.51931C28.1088 5.62561 28.5002 6.92374 28.5 8.25131C28.5002 9.57887 28.1088 10.877 27.375 11.9833ZM12.6525 19.8763C12.4062 19.8757 12.1622 19.9236 11.9344 20.0172C11.7067 20.1109 11.4996 20.2486 11.325 20.4223L8.25 23.4973V29.2513H16.6905L25.395 27.0763L30.693 24.8143C30.8735 24.7168 31.0115 24.5561 31.0808 24.363C31.1501 24.1699 31.1456 23.9581 31.0682 23.7681C30.9909 23.5781 30.8462 23.4233 30.6618 23.3335C30.4773 23.2437 30.2663 23.2251 30.069 23.2813L30.039 23.2888L20.421 25.5013H15V22.5013H19.6875C20.0356 22.5013 20.3694 22.363 20.6156 22.1169C20.8617 21.8707 21 21.5369 21 21.1888C21 20.8407 20.8617 20.5069 20.6156 20.2607C20.3694 20.0146 20.0356 19.8763 19.6875 19.8763H12.6525ZM23.9805 21.6043L29.3085 20.3788C29.876 20.2296 30.4701 20.2124 31.0452 20.3286C31.6204 20.4447 32.1612 20.6911 32.6263 21.0489C33.0914 21.4066 33.4683 21.8662 33.7281 22.3923C33.9879 22.9184 34.1237 23.4971 34.125 24.0838C34.1244 24.7961 33.9257 25.4941 33.5511 26.0999C33.1766 26.7058 32.6409 27.1955 32.004 27.5143L31.9635 27.5353L26.3535 29.9278L17.0595 32.2513H0V21.3763H6.129L9.207 18.2983C9.66051 17.8463 10.1986 17.4881 10.7906 17.2441C11.3825 17.0002 12.0167 16.8752 12.657 16.8763H19.6875C20.2889 16.8762 20.8837 17.0019 21.4336 17.2454C21.9836 17.4888 22.4765 17.8446 22.8808 18.2898C23.2851 18.7351 23.5918 19.26 23.7812 19.8308C23.9705 20.4016 24.0384 21.0057 23.9805 21.6043ZM5.25 24.3763H3V29.2513H5.25V24.3763Z" fill="#F5F7FD"/>
</svg>
