<svg width="194" height="24" viewBox="0 0 194 24" fill="none" xmlns="http://www.w3.org/2000/svg">
<g clip-path="url(#clip0_420_1212)">
<mask id="mask0_420_1212" style="mask-type:luminance" maskUnits="userSpaceOnUse" x="0" y="0" width="194" height="24">
<path d="M194 0H0V24H194V0Z" fill="white"/>
</mask>
<g mask="url(#mask0_420_1212)">
<mask id="mask1_420_1212" style="mask-type:luminance" maskUnits="userSpaceOnUse" x="0" y="0" width="194" height="24">
<path d="M194 0H0V24H194V0Z" fill="white"/>
</mask>
<g mask="url(#mask1_420_1212)">
<path d="M12.6066 14.2093V7.22557C12.6066 4.83721 11.0074 2.28711 6.51927 2.28711C4.37638 2.28711 2.25313 3.08071 0.839637 4.40338L0.561772 4.67093L2.61556 6.80232L3.0686 6.45465C3.92636 5.79709 4.81281 5.11686 6.54192 5.11686C8.53379 5.11686 9.42478 6.37755 9.42478 7.62766V7.83022H7.90407C2.80735 7.83022 0 9.64568 0 12.941C0 15.5773 2.1006 17.4184 5.10578 17.4184C7.0448 17.4184 8.49453 16.8425 9.59542 15.6226C9.61052 15.9915 9.63318 16.3603 9.66338 16.7261L9.69207 17.0708H12.7697L12.7199 16.649C12.6333 15.8388 12.5954 15.0241 12.6066 14.2093ZM5.9137 14.5857C3.34647 14.5857 3.34647 13.195 3.34647 12.7385C3.34647 10.8792 6.107 10.4892 8.42204 10.4892H9.42931V10.9774C9.42931 12.7218 8.5051 14.5857 5.91219 14.5857" fill="white"/>
<path d="M24.162 12.8393C23.3344 13.8068 22.3997 14.2391 21.1311 14.2391C18.7919 14.2391 17.0945 12.4418 17.0945 9.96725C17.0945 7.74064 18.3026 5.49437 20.9877 5.49437C22.2486 5.49437 23.1849 5.91611 24.1167 6.90622L24.3704 7.17529L26.8802 4.88065L26.6235 4.601C25.2644 3.12717 23.3012 2.31543 21.0979 2.31543C16.6641 2.31543 13.5684 5.43844 13.5684 9.90981C13.5684 14.3298 16.6641 17.418 21.0979 17.418C23.3631 17.418 25.2508 16.6456 26.5691 15.1854L26.8093 14.9193L24.4217 12.531L24.162 12.8393Z" fill="white"/>
<path d="M36.6243 12.8393C35.7967 13.8068 34.8619 14.2391 33.5934 14.2391C31.2542 14.2391 29.5568 12.4418 29.5568 9.96725C29.5568 7.74064 30.7649 5.49437 33.4499 5.49437C34.7109 5.49437 35.6472 5.91611 36.5789 6.90622L36.8326 7.17529L39.347 4.88065L39.0918 4.601C37.7327 3.12717 35.7695 2.31543 33.5647 2.31543C29.1325 2.31543 26.0352 5.43844 26.0352 9.90981C26.0352 14.3298 29.1325 17.418 33.5647 17.418C35.8299 17.418 37.7176 16.6456 39.0359 15.1854L39.2761 14.9193L36.8885 12.531L36.6243 12.8393Z" fill="white"/>
<path d="M46.1478 2.28711C41.8605 2.28711 38.502 5.61267 38.502 9.85277C38.502 14.0929 41.8605 17.4109 46.1478 17.4109C50.4351 17.4109 53.7921 14.0853 53.7921 9.85277C53.7921 5.62023 50.4396 2.28711 46.1478 2.28711ZM46.1478 14.2395C43.6817 14.2395 42.0251 12.4754 42.0251 9.85579C42.0251 7.23615 43.6863 5.47209 46.1478 5.47209C48.6093 5.47209 50.2705 7.23615 50.2705 9.85579C50.2705 12.4754 48.6093 14.2395 46.1478 14.2395Z" fill="white"/>
<path d="M64.3782 10.054C64.3782 12.7522 63.1611 14.2397 60.9487 14.2397C59.9248 14.2397 58.2093 13.83 58.2093 11.094V2.62891H54.8613V11.815C54.8613 15.9463 57.6188 17.4186 60.1982 17.4186C61.9046 17.4186 63.4329 16.7837 64.3782 15.7392V17.0709H67.7277V2.63344H64.3782V10.054Z" fill="white"/>
<path d="M76.3577 2.28711C74.6527 2.28711 73.1245 2.92048 72.1776 3.96652V2.63327H68.8281V17.0708H72.1852V9.65021C72.1852 6.95348 73.3933 5.46605 75.6087 5.46605C76.631 5.46605 78.3465 5.87418 78.3465 8.61022V17.0753H81.699V7.88917C81.699 3.75792 78.9415 2.28711 76.3607 2.28711" fill="white"/>
<path d="M90.2643 14.2395C88.7542 14.2395 88.6787 13.1813 88.6787 11.4687V5.63834H92.3997V2.63324H88.6787V0L85.3307 0.665113V2.63022H82.3301V5.63834H85.3307V12.3953C85.3307 14.5116 85.3307 17.4199 89.7735 17.4199C90.1964 17.4199 91.5661 17.3262 92.297 16.9105L92.4858 16.8017V13.5411L91.9134 13.8903C91.4423 14.179 90.7566 14.2395 90.2643 14.2395Z" fill="white"/>
<path d="M96.9866 2.63281H93.6387V17.0703H96.9866V2.63281Z" fill="white"/>
<path d="M105.821 2.28711C104.114 2.28711 102.586 2.92048 101.639 3.96501V2.63327H98.291V17.0708H101.633V9.65021C101.633 6.95197 102.852 5.46605 105.064 5.46605C106.086 5.46605 107.802 5.87418 107.802 8.61022V17.0753H111.151V7.88917C111.151 3.75792 108.394 2.28711 105.815 2.28711" fill="white"/>
<path d="M123.875 2.63327V4.0164C122.771 2.94466 121.123 2.28711 119.435 2.28711C115.12 2.28711 112.108 5.39802 112.108 9.84521C112.094 11.8829 112.832 13.7573 114.189 15.1253C115.545 16.4933 117.405 17.2416 119.435 17.2416C121.23 17.2416 122.824 16.587 123.875 15.4518V16.4601C123.875 18.4494 123.085 20.8181 119.32 20.8181C117.531 20.8181 116.069 20.1499 114.72 18.7139L114.418 18.398L112.173 21.2081L112.431 21.4454C114.312 23.1883 116.52 24 119.377 24C123.998 24 127.23 20.9481 127.23 16.5795V2.63327H123.875ZM123.875 9.85277C123.875 12.4512 122.295 14.0657 119.753 14.0657C117.212 14.0657 115.629 12.4512 115.629 9.85277C115.629 7.2286 117.29 5.46907 119.753 5.46907C122.216 5.46907 123.875 7.23162 123.875 9.85277Z" fill="white"/>
<path d="M140.11 2.56543H128.414V5.65216H132.603V17.1359H135.919V5.65367H140.11V2.56543Z" fill="white"/>
<path d="M147.825 2.21582H147.656C145.484 2.21582 143.532 2.97163 142.156 4.32302C140.745 5.72278 139.99 7.65312 139.99 9.90846C139.99 12.0822 140.759 14.0291 142.157 15.3926C143.556 16.7561 145.49 17.4832 147.656 17.4832C152.201 17.4061 155.374 14.2589 155.371 9.83136C155.371 7.5987 154.639 5.68952 153.257 4.3079C151.898 2.95954 149.977 2.21582 147.82 2.21582M147.669 14.3965C145.168 14.3965 143.42 12.4858 143.417 9.75427C143.417 7.17696 145.206 5.30557 147.668 5.30406C150.129 5.30255 151.937 7.17847 151.94 9.75276C151.94 12.4858 150.179 14.3949 147.669 14.3965Z" fill="white"/>
<path d="M174.698 2.56934L174.6 2.7991L168.369 17.1383H172.064L173.301 14.0063H178.632L179.907 17.1383H183.656L177.385 2.56934H174.698ZM174.473 11.0344L175.971 7.14501L177.441 11.0344H174.473Z" fill="white"/>
<path d="M190.042 2.56543L186.89 7.6218L183.773 2.56543H179.658L185.172 10.9685V17.1359H188.488V10.9685L194 2.56543H190.042Z" fill="white"/>
<path d="M167.342 4.35758C166.024 3.20119 164.209 2.56934 162.228 2.56934H156.398V17.1398H161.939C165.663 17.1398 169.621 14.5701 169.623 9.85535C169.623 7.56826 168.833 5.66967 167.342 4.36212M159.65 5.59258H161.494C163.665 5.59258 166.255 6.33176 166.255 9.85535C166.255 13.5634 163.017 14.1181 161.089 14.1181H159.65V5.59258Z" fill="white"/>
</g>
</g>
</g>
<defs>
<clipPath id="clip0_420_1212">
<rect width="194" height="24" fill="white"/>
</clipPath>
</defs>
</svg>
