<svg width="93" height="25" viewBox="0 0 93 25" fill="none" xmlns="http://www.w3.org/2000/svg">
<path d="M52.6843 8.42578C52.6843 5.7406 52.7308 3.2406 52.8703 0.925781L45.7558 2.26837V2.91652L46.4533 3.00911C46.9648 3.05541 47.2903 3.2406 47.4763 3.51837C47.6623 3.84245 47.8018 4.30541 47.8948 4.99986C47.9878 6.34245 48.0808 9.398 48.0343 14.2128C48.0343 18.9813 47.9878 21.9906 47.8948 23.148C50.4523 23.7036 52.4518 23.935 53.9398 23.935C56.7298 23.935 58.9153 23.148 60.4963 21.5276C62.0773 19.9536 62.9143 17.7313 62.9143 14.9999C62.9143 12.8239 62.3098 11.0184 61.1008 9.58319C59.8918 8.148 58.3573 7.45356 56.5438 7.45356C55.3348 7.45356 54.0793 7.77763 52.6843 8.42578ZM52.8238 22.685C52.7308 21.2036 52.6378 16.7591 52.6378 9.4906C53.0563 9.35171 53.6143 9.25911 54.3118 9.25911C55.4278 9.25911 56.3113 9.81467 56.9623 10.9721C57.6133 12.1295 57.9388 13.5184 57.9388 15.2776C57.9388 17.4536 57.5668 19.2128 56.8228 20.6943C56.0788 22.1295 55.1488 22.8702 53.9863 22.8702C53.6143 22.7776 53.2423 22.7313 52.8238 22.685ZM19.0648 1.38874H0.464844V2.31467L1.44134 2.40726C2.18534 2.54615 2.69684 2.82393 3.02234 3.2406C3.34784 3.70356 3.53384 4.4443 3.58034 5.46282C3.95234 10.4628 3.95234 15.1387 3.58034 19.4443C3.48734 20.4628 3.30134 21.2036 3.02234 21.6665C2.69684 22.1295 2.18534 22.4073 1.44134 22.4999L0.464844 22.6387V23.5647H12.4618V22.6387L11.2063 22.5462C10.9 22.5206 10.602 22.4336 10.3303 22.2904C10.0586 22.1472 9.81877 21.9507 9.62534 21.7128C9.29984 21.2499 9.11384 20.5091 9.06734 19.4906C8.92784 17.6387 8.83484 15.5091 8.83484 13.148L11.3458 13.1943C12.6943 13.2406 13.6243 14.2591 14.0893 16.2962H15.0193V8.74986H14.0893C13.6243 10.7406 12.7408 11.7591 11.3458 11.8054L8.83484 11.8517C8.83484 7.68504 8.92784 4.72208 9.06734 2.91652H12.7408C15.3448 2.91652 17.1118 4.58319 18.1348 7.91652L19.2508 7.59245L19.0648 1.38874ZM16.8793 15.648C16.8793 18.0554 17.5768 20.0462 18.9253 21.6202C20.2738 23.1943 22.2733 23.935 24.7843 23.935C27.2953 23.935 29.3413 23.148 30.8293 21.5276C32.3173 19.9536 33.0148 17.9628 33.0148 15.5554C33.0148 13.148 32.3173 11.1573 30.9688 9.58319C29.6203 8.00912 27.6208 7.26837 25.1098 7.26837C22.5988 7.26837 20.5528 8.05541 19.0648 9.67578C17.5768 11.2499 16.8793 13.2406 16.8793 15.648ZM27.2488 10.3702C27.8068 11.7128 28.0393 13.4721 28.0393 15.6017C28.0393 20.5091 27.0163 22.9165 25.0168 22.9165C23.9938 22.9165 23.2033 22.2221 22.6453 20.8332C22.0873 19.4443 21.8548 17.685 21.8548 15.6017C21.8548 10.7406 22.8778 8.33319 24.8773 8.33319C25.9003 8.28689 26.6908 8.98134 27.2488 10.3702ZM66.5413 21.6202C68.0758 23.148 70.0288 23.935 72.3538 23.935C73.7953 23.935 75.0508 23.6573 76.1668 23.0554C77.2828 22.4999 78.1663 21.8054 78.7708 20.9721L78.3058 20.4165C77.2828 21.2036 76.1203 21.5739 74.7718 21.5739C72.9118 21.5739 71.4703 20.9721 70.4938 19.7221C69.4708 18.4721 69.0058 16.898 69.0988 14.861H79.0498C79.0498 12.6387 78.4918 10.8332 77.3293 9.398C76.1668 8.00911 74.5393 7.31467 72.4468 7.31467C69.8428 7.31467 67.8433 8.148 66.4018 9.76837C64.9603 11.3887 64.2628 13.3795 64.2628 15.7406C64.2628 18.148 65.0068 20.0924 66.5413 21.6202ZM69.9823 9.99986C70.4938 8.88874 71.1448 8.33319 72.0283 8.33319C73.4233 8.33319 74.1208 10.0924 74.1208 13.6573L69.1918 13.7499C69.2383 12.361 69.4708 11.111 69.9823 9.99986ZM91.5583 8.148C90.3028 7.59245 88.7218 7.26837 86.8153 7.26837C84.8623 7.26837 83.3278 7.77763 82.1653 8.74986C81.0028 9.72208 80.3983 10.9258 80.3983 12.361C80.3983 13.611 80.7703 14.5832 81.4678 15.2776C82.1653 15.9721 83.2813 16.5739 84.7228 17.0832C86.0248 17.5462 86.9548 18.0091 87.4198 18.4258C87.8848 18.8887 88.1638 19.398 88.1638 20.0924C88.1638 20.7406 87.9313 21.3424 87.4198 21.8054C86.9548 22.3147 86.3038 22.5462 85.4668 22.5462C83.4208 22.5462 81.8863 21.0647 80.8168 18.1017L80.0263 18.3332L80.2123 22.9628C81.8863 23.611 83.7463 23.935 85.7923 23.935C87.9313 23.935 89.5588 23.4721 90.7678 22.4999C91.9768 21.5739 92.5813 20.2313 92.5813 18.5647C92.5813 17.4536 92.3023 16.5276 91.6978 15.8332C91.0933 15.1387 90.1168 14.5369 88.7218 13.9813C87.1873 13.4258 86.1178 12.9165 85.5598 12.4536C85.0018 11.9906 84.7228 11.435 84.7228 10.7406C84.7228 10.0462 84.9088 9.4906 85.3273 9.02763C85.7458 8.56467 86.2573 8.37949 86.9083 8.37949C88.7683 8.37949 90.1168 9.72208 90.9538 12.361L91.7443 12.1295L91.5583 8.148ZM46.8253 7.73134C46.1743 7.40726 45.4768 7.26837 44.6863 7.26837C43.8958 7.26837 43.1053 7.59245 42.2218 8.2406C41.3383 8.88874 40.6873 9.76837 40.1758 10.9721L40.2223 7.26837L33.1543 8.65726V9.30541L33.8518 9.35171C34.7353 9.4443 35.2468 10.1387 35.3398 11.3887C35.6188 14.2591 35.6188 17.3147 35.3398 20.5554C35.2468 21.8054 34.7353 22.4536 33.8518 22.5924L33.1543 22.685V23.5647H43.0123V22.685L41.7568 22.5924C40.8733 22.4999 40.3618 21.8054 40.2688 20.5554C39.9898 17.8702 39.9433 14.9999 40.1758 12.0369C40.4548 11.5739 41.0593 11.2962 41.9893 11.2036C42.9193 11.111 43.9888 11.3887 45.1048 12.0369L46.8253 7.73134Z" fill="white"/>
</svg>
