<svg width="1440" height="1024" viewBox="0 0 1440 1024" fill="none" xmlns="http://www.w3.org/2000/svg">
<g clip-path="url(#clip0_412_960)">
<g style="mix-blend-mode:plus-lighter" filter="url(#filter0_f_412_960)">
<path d="M1664.62 1134.71C1664.62 1134.71 -527.878 1162.21 -687.763 792.177C-847.647 422.143 -531.88 397.21 -531.88 397.21C-531.88 397.21 -81.8789 659.709 596.12 739.71C1274.12 819.711 1664.62 1134.71 1664.62 1134.71Z" fill="url(#paint0_linear_412_960)"/>
</g>
<g filter="url(#filter1_f_412_960)">
<path d="M1946.02 1520.96C1946.02 1520.96 -246.48 1548.47 -406.364 1178.43C-566.249 808.399 -250.482 783.466 -250.482 783.466C-250.482 783.466 -11.4695 857.944 331.519 857.965C502.865 857.975 680.649 756.814 906.519 783.465C1584.52 863.466 1946.02 1520.96 1946.02 1520.96Z" fill="url(#paint1_linear_412_960)" fill-opacity="0.4"/>
</g>
<g style="mix-blend-mode:screen" filter="url(#filter2_f_412_960)">
<path d="M-555.836 1163.21L-309.836 635.209L511.664 1003.21L-555.836 1163.21Z" fill="url(#paint2_linear_412_960)"/>
</g>
<g style="mix-blend-mode:screen" filter="url(#filter3_f_412_960)">
<path d="M-601.851 948.355L-309.836 635.209C-254.022 856.825 -77.9035 938.685 511.664 1003.21L-601.851 948.355Z" fill="url(#paint3_linear_412_960)"/>
</g>
</g>
<defs>
<filter id="filter0_f_412_960" x="-1092.95" y="37.21" width="3117.57" height="1457.96" filterUnits="userSpaceOnUse" color-interpolation-filters="sRGB">
<feFlood flood-opacity="0" result="BackgroundImageFix"/>
<feBlend mode="normal" in="SourceGraphic" in2="BackgroundImageFix" result="shape"/>
<feGaussianBlur stdDeviation="180" result="effect1_foregroundBlur_412_960"/>
</filter>
<filter id="filter1_f_412_960" x="-571.551" y="658.993" width="2637.57" height="982.432" filterUnits="userSpaceOnUse" color-interpolation-filters="sRGB">
<feFlood flood-opacity="0" result="BackgroundImageFix"/>
<feBlend mode="normal" in="SourceGraphic" in2="BackgroundImageFix" result="shape"/>
<feGaussianBlur stdDeviation="60" result="effect1_foregroundBlur_412_960"/>
</filter>
<filter id="filter2_f_412_960" x="-675.836" y="515.209" width="1307.5" height="768" filterUnits="userSpaceOnUse" color-interpolation-filters="sRGB">
<feFlood flood-opacity="0" result="BackgroundImageFix"/>
<feBlend mode="normal" in="SourceGraphic" in2="BackgroundImageFix" result="shape"/>
<feGaussianBlur stdDeviation="60" result="effect1_foregroundBlur_412_960"/>
</filter>
<filter id="filter3_f_412_960" x="-721.852" y="515.209" width="1353.52" height="608" filterUnits="userSpaceOnUse" color-interpolation-filters="sRGB">
<feFlood flood-opacity="0" result="BackgroundImageFix"/>
<feBlend mode="normal" in="SourceGraphic" in2="BackgroundImageFix" result="shape"/>
<feGaussianBlur stdDeviation="60" result="effect1_foregroundBlur_412_960"/>
</filter>
<linearGradient id="paint0_linear_412_960" x1="-377.336" y1="579.195" x2="1868.7" y2="23.0809" gradientUnits="userSpaceOnUse">
<stop stop-color="#198CE6"/>
<stop offset="1" stop-color="#14378C"/>
</linearGradient>
<linearGradient id="paint1_linear_412_960" x1="-377.313" y1="688.986" x2="1868.72" y2="132.872" gradientUnits="userSpaceOnUse">
<stop stop-color="#198CE6"/>
<stop offset="1" stop-color="#14378C"/>
</linearGradient>
<linearGradient id="paint2_linear_412_960" x1="-291.426" y1="735.373" x2="1954.61" y2="179.257" gradientUnits="userSpaceOnUse">
<stop stop-color="#5681CE"/>
<stop offset="1" stop-color="#5681CE"/>
</linearGradient>
<linearGradient id="paint3_linear_412_960" x1="-291.426" y1="735.373" x2="58.1643" y2="1035.21" gradientUnits="userSpaceOnUse">
<stop stop-color="#BBD6EC"/>
<stop offset="1" stop-color="#BBD6EC"/>
</linearGradient>
<clipPath id="clip0_412_960">
<rect width="1440" height="1024" fill="white"/>
</clipPath>
</defs>
</svg>
