<svg width="494" height="351" viewBox="0 0 494 351" fill="none" xmlns="http://www.w3.org/2000/svg">
<g clip-path="url(#clip0_346_2)">
<g style="mix-blend-mode:plus-lighter" filter="url(#filter0_f_346_2)">
<path d="M-57.4982 -125.762C195.506 -351.874 686.271 -233.899 757.273 -115.366C828.275 3.16649 722.101 25.867 722.101 25.867C722.101 25.867 557.363 -43.0534 323.375 -39.6877C89.3871 -36.322 -310.502 100.349 -57.4982 -125.762Z" fill="url(#paint0_linear_346_2)"/>
</g>
<g filter="url(#filter1_f_346_2)">
<path d="M-57.4994 -125.763C195.505 -351.875 686.27 -233.9 757.272 -115.367C828.274 3.16584 722.1 25.8663 722.1 25.8663C722.1 25.8663 637.528 11.3282 520.98 26.7759C462.756 34.4931 406.904 76.8783 328.952 77.9995C94.9644 81.3653 -310.503 100.349 -57.4994 -125.763Z" fill="url(#paint1_linear_346_2)" fill-opacity="0.4"/>
</g>
<g style="mix-blend-mode:screen">
<path d="M695.729 -235.499L635.93 -45.0011L340.203 -133.031L695.729 -235.499Z" fill="url(#paint2_linear_346_2)"/>
</g>
<g style="mix-blend-mode:screen">
<path d="M721.046 -164.566L635.93 -45.0011C606.978 -117.791 543.445 -137.671 340.203 -133.031L721.046 -164.566Z" fill="url(#paint3_linear_346_2)"/>
</g>
<g filter="url(#filter4_f_346_2)">
<path d="M-104.976 -165.707C148.028 -391.819 638.794 -273.844 709.795 -155.311C780.797 -36.778 674.623 -14.0775 674.623 -14.0775C674.623 -14.0775 590.051 -28.6156 473.503 -13.1679C415.28 -5.45069 359.427 36.9345 281.476 38.0557C47.4878 41.4214 -357.98 60.4048 -104.976 -165.707Z" fill="url(#paint4_linear_346_2)" fill-opacity="0.4"/>
</g>
<g opacity="0.8">
<g style="mix-blend-mode:plus-lighter" filter="url(#filter5_f_346_2)">
<path d="M690.551 515.12C690.551 515.12 -60.9792 524.547 -115.783 397.709C-170.587 270.872 -62.3508 262.325 -62.3508 262.325C-62.3508 262.325 91.8975 352.303 324.298 379.725C556.698 407.147 690.551 515.12 690.551 515.12Z" fill="url(#paint5_linear_346_2)"/>
</g>
<g filter="url(#filter6_f_346_2)">
<path d="M690.55 515.12C690.55 515.12 -60.9803 524.547 -115.784 397.71C-170.589 270.872 -62.352 262.325 -62.352 262.325C-62.352 262.325 19.575 287.855 137.142 287.862C195.875 287.865 256.815 253.19 334.237 262.325C566.637 289.747 690.55 515.12 690.55 515.12Z" fill="url(#paint6_linear_346_2)" fill-opacity="0.4"/>
</g>
<g style="mix-blend-mode:screen" filter="url(#filter7_f_346_2)">
<path d="M-70.5747 524.889L13.7476 343.905L295.336 470.045L-70.5747 524.889Z" fill="url(#paint7_linear_346_2)"/>
</g>
<g style="mix-blend-mode:screen" filter="url(#filter8_f_346_2)">
<path d="M-86.3476 451.243L13.7476 343.905C32.8791 419.869 93.2479 447.928 295.336 470.045L-86.3476 451.243Z" fill="url(#paint8_linear_346_2)"/>
</g>
</g>
</g>
<defs>
<filter id="filter0_f_346_2" x="-179.578" y="-295.177" width="1002.44" height="362.177" filterUnits="userSpaceOnUse" color-interpolation-filters="sRGB">
<feFlood flood-opacity="0" result="BackgroundImageFix"/>
<feBlend mode="normal" in="SourceGraphic" in2="BackgroundImageFix" result="shape"/>
<feGaussianBlur stdDeviation="20.5664" result="effect1_foregroundBlur_346_2"/>
</filter>
<filter id="filter1_f_346_2" x="-302.258" y="-418.576" width="1248.52" height="662.929" filterUnits="userSpaceOnUse" color-interpolation-filters="sRGB">
<feFlood flood-opacity="0" result="BackgroundImageFix"/>
<feBlend mode="normal" in="SourceGraphic" in2="BackgroundImageFix" result="shape"/>
<feGaussianBlur stdDeviation="82.2656" result="effect1_foregroundBlur_346_2"/>
</filter>
<filter id="filter4_f_346_2" x="-226.336" y="-335.122" width="1001.72" height="416.132" filterUnits="userSpaceOnUse" color-interpolation-filters="sRGB">
<feFlood flood-opacity="0" result="BackgroundImageFix"/>
<feBlend mode="normal" in="SourceGraphic" in2="BackgroundImageFix" result="shape"/>
<feGaussianBlur stdDeviation="20.5664" result="effect1_foregroundBlur_346_2"/>
</filter>
<filter id="filter5_f_346_2" x="-172.406" y="221.192" width="904.09" height="335.218" filterUnits="userSpaceOnUse" color-interpolation-filters="sRGB">
<feFlood flood-opacity="0" result="BackgroundImageFix"/>
<feBlend mode="normal" in="SourceGraphic" in2="BackgroundImageFix" result="shape"/>
<feGaussianBlur stdDeviation="20.5664" result="effect1_foregroundBlur_346_2"/>
</filter>
<filter id="filter6_f_346_2" x="-213.539" y="178.526" width="986.355" height="419.018" filterUnits="userSpaceOnUse" color-interpolation-filters="sRGB">
<feFlood flood-opacity="0" result="BackgroundImageFix"/>
<feBlend mode="normal" in="SourceGraphic" in2="BackgroundImageFix" result="shape"/>
<feGaussianBlur stdDeviation="41.1328" result="effect1_foregroundBlur_346_2"/>
</filter>
<filter id="filter7_f_346_2" x="-111.707" y="302.772" width="448.176" height="263.25" filterUnits="userSpaceOnUse" color-interpolation-filters="sRGB">
<feFlood flood-opacity="0" result="BackgroundImageFix"/>
<feBlend mode="normal" in="SourceGraphic" in2="BackgroundImageFix" result="shape"/>
<feGaussianBlur stdDeviation="20.5664" result="effect1_foregroundBlur_346_2"/>
</filter>
<filter id="filter8_f_346_2" x="-127.48" y="302.772" width="463.949" height="208.406" filterUnits="userSpaceOnUse" color-interpolation-filters="sRGB">
<feFlood flood-opacity="0" result="BackgroundImageFix"/>
<feBlend mode="normal" in="SourceGraphic" in2="BackgroundImageFix" result="shape"/>
<feGaussianBlur stdDeviation="20.5664" result="effect1_foregroundBlur_346_2"/>
</filter>
<linearGradient id="paint0_linear_346_2" x1="661.387" y1="-29.008" x2="-76.7544" y2="261.163" gradientUnits="userSpaceOnUse">
<stop stop-color="#FFFCE4"/>
<stop offset="1" stop-color="#14378C"/>
</linearGradient>
<linearGradient id="paint1_linear_346_2" x1="661.386" y1="-29.0084" x2="-76.7556" y2="261.162" gradientUnits="userSpaceOnUse">
<stop stop-color="#FFE600"/>
<stop offset="1" stop-color="#EB4E8D"/>
</linearGradient>
<linearGradient id="paint2_linear_346_2" x1="625.161" y1="-78.207" x2="-112.981" y2="211.964" gradientUnits="userSpaceOnUse">
<stop stop-color="#FFE600"/>
<stop offset="1" stop-color="#5681CE"/>
</linearGradient>
<linearGradient id="paint3_linear_346_2" x1="625.161" y1="-78.207" x2="492.86" y2="-164.339" gradientUnits="userSpaceOnUse">
<stop stop-color="#FFFCE4"/>
<stop offset="1" stop-color="white"/>
</linearGradient>
<linearGradient id="paint4_linear_346_2" x1="613.91" y1="-68.9522" x2="-124.232" y2="221.219" gradientUnits="userSpaceOnUse">
<stop stop-color="#198CE6"/>
<stop offset="1" stop-color="#14378C"/>
</linearGradient>
<linearGradient id="paint5_linear_346_2" x1="-9.37747" y1="324.705" x2="760.503" y2="134.084" gradientUnits="userSpaceOnUse">
<stop stop-color="#FFE600"/>
<stop offset="1" stop-color="#14378C"/>
</linearGradient>
<linearGradient id="paint6_linear_346_2" x1="-9.37868" y1="324.705" x2="760.502" y2="134.083" gradientUnits="userSpaceOnUse">
<stop stop-color="#FFE600"/>
<stop offset="1" stop-color="#FF9100"/>
</linearGradient>
<linearGradient id="paint7_linear_346_2" x1="20.0581" y1="378.238" x2="789.939" y2="187.617" gradientUnits="userSpaceOnUse">
<stop stop-color="#FFE600"/>
<stop offset="1" stop-color="#FF6F00"/>
</linearGradient>
<linearGradient id="paint8_linear_346_2" x1="20.0581" y1="378.238" x2="139.888" y2="481.014" gradientUnits="userSpaceOnUse">
<stop stop-color="#F4EFD4"/>
<stop offset="1" stop-color="#F5EEAE"/>
</linearGradient>
<clipPath id="clip0_346_2">
<rect width="493.594" height="351" fill="white"/>
</clipPath>
</defs>
</svg>
