<svg width="48" height="48" viewBox="0 0 48 48" fill="none" xmlns="http://www.w3.org/2000/svg">
<rect x="-0.685389" y="0.187174" width="19.2242" height="1" transform="matrix(-0.5 0.866025 -0.870778 -0.491677 32.2755 15.82)" stroke="url(#paint0_linear_482_2993)"/>
<rect x="-0.685389" y="0.187174" width="32.1765" height="1" transform="matrix(-0.5 0.866025 -0.870778 -0.491677 32.4122 4.62472)" stroke="url(#paint1_linear_482_2993)"/>
<rect x="-0.685389" y="0.187174" width="24.9743" height="1" transform="matrix(-0.5 0.866025 -0.870778 -0.491677 31.9396 10.947)" stroke="url(#paint2_linear_482_2993)"/>
<rect x="-0.685389" y="0.187174" width="33.6526" height="1" transform="matrix(-0.5 0.866025 -0.870778 -0.491677 30.4122 2.49581)" stroke="url(#paint3_linear_482_2993)"/>
<path d="M16.0977 28.0098H41.1641C42.2686 28.0098 43.1641 28.9052 43.1641 30.0098C43.1641 31.1143 42.2686 32.0098 41.1641 32.0098H16.0977C14.9931 32.0098 14.0977 31.1143 14.0977 30.0098C14.0977 28.9052 14.9931 28.0098 16.0977 28.0098Z" stroke="url(#paint4_linear_482_2993)" stroke-width="2"/>
<path d="M35.9687 2.99023L35.9687 45.0098C35.9687 46.1089 35.0777 47 33.9785 47C32.8793 47 31.9883 46.1089 31.9883 45.0098L31.9883 2.99023C31.9883 1.89106 32.8793 1 33.9785 1C35.0777 1 35.9687 1.89106 35.9687 2.99023Z" stroke="url(#paint5_linear_482_2993)" stroke-width="2"/>
<path fill-rule="evenodd" clip-rule="evenodd" d="M6.09702 20.6108H9.6383V22.2281H3.97266V15.1992H7.98897L8.92882 16.8166H6.09906V17.9765H8.65971V19.4509H6.09906L6.09702 20.6108ZM13.4079 15.1992L12.2051 17.4925L11.0063 15.1992H8.65767L11.1307 19.4509V22.2281H13.2509V19.4509L15.7239 15.1992H13.4079Z" fill="white"/>
<path fill-rule="evenodd" clip-rule="evenodd" d="M17.8359 10.6882V8.07227L3.83594 13.1428L17.8359 10.6882Z" fill="white"/>
<defs>
<linearGradient id="paint0_linear_482_2993" x1="0.789007" y1="1.15387" x2="20.1824" y2="0.17264" gradientUnits="userSpaceOnUse">
<stop stop-color="#FF4136" stop-opacity="0"/>
<stop offset="0.475962" stop-color="#FF4136"/>
<stop offset="1" stop-color="#FF4136" stop-opacity="0"/>
</linearGradient>
<linearGradient id="paint1_linear_482_2993" x1="1.29431" y1="1.15387" x2="32.971" y2="-1.47528" gradientUnits="userSpaceOnUse">
<stop stop-color="#2BB856" stop-opacity="0"/>
<stop offset="0.4375" stop-color="#2BB856"/>
<stop offset="1" stop-color="#2BB856" stop-opacity="0"/>
</linearGradient>
<linearGradient id="paint2_linear_482_2993" x1="1.01334" y1="1.15387" x2="25.8793" y2="-0.461962" gradientUnits="userSpaceOnUse">
<stop stop-color="#198CE6" stop-opacity="0"/>
<stop offset="0.442308" stop-color="#198CE6"/>
<stop offset="1" stop-color="#198CE6" stop-opacity="0"/>
</linearGradient>
<linearGradient id="paint3_linear_482_2993" x1="1.3519" y1="1.15387" x2="34.4174" y2="-1.71266" gradientUnits="userSpaceOnUse">
<stop stop-color="#750D5D" stop-opacity="0"/>
<stop offset="0.5" stop-color="#750D5D"/>
<stop offset="1" stop-color="#750D5D" stop-opacity="0"/>
</linearGradient>
<linearGradient id="paint4_linear_482_2993" x1="16.932" y1="30.5681" x2="42.6774" y2="30.3549" gradientUnits="userSpaceOnUse">
<stop stop-color="white" stop-opacity="0"/>
<stop offset="0.466381" stop-color="white"/>
<stop offset="1" stop-color="white" stop-opacity="0"/>
</linearGradient>
<linearGradient id="paint5_linear_482_2993" x1="33.5184" y1="1.87262" x2="35.3022" y2="45.0869" gradientUnits="userSpaceOnUse">
<stop stop-color="white" stop-opacity="0"/>
<stop offset="0.527821" stop-color="white"/>
<stop offset="1" stop-color="white" stop-opacity="0"/>
</linearGradient>
</defs>
</svg>
