<svg width="313" height="57" viewBox="0 0 313 57" fill="none" xmlns="http://www.w3.org/2000/svg">
<g clip-path="url(#clip0_419_1173)">
<path d="M249.5 14.73C247.047 12.641 244.458 11.079 241.729 10.032C239 8.99 236.13 8.469 233.125 8.469C227.302 8.469 222.568 10.339 218.917 14.073C215.266 17.807 213.443 22.646 213.443 28.589C213.443 34.339 215.219 39.079 218.771 42.818C222.323 46.552 226.807 48.417 232.214 48.417C235.37 48.417 238.37 47.86 241.219 46.745C244.068 45.63 246.808 43.943 249.427 41.688V51.474C247.099 53.146 244.562 54.401 241.823 55.224C239.078 56.047 236.109 56.458 232.906 56.458C228.833 56.458 225.062 55.791 221.609 54.458C218.151 53.125 215.114 51.161 212.494 48.562C209.9 46.015 207.9 43.015 206.51 39.562C205.114 36.104 204.416 32.421 204.416 28.515C204.416 24.609 205.114 20.942 206.51 17.51C207.901 14.078 209.921 11.062 212.567 8.468C215.213 5.848 218.244 3.864 221.661 2.52C225.083 1.172 228.781 0.5 232.76 0.5C235.89 0.5 238.875 0.953 241.713 1.865C244.551 2.777 247.302 4.151 249.973 5.995L249.5 14.73Z" fill="white"/>
<path d="M169.261 9.12637V55.0434H160.6V9.12537H146.449V1.77637H183.345V9.12537L169.261 9.12637Z" fill="white"/>
<path d="M100.234 55.0434V1.77637H108.89V47.2924H128.249V55.0424L100.234 55.0434Z" fill="white"/>
<path d="M0.5004 1.77169V55.0427H8.6137V31.1367H13.6C17.481 31.1367 20.3354 30.9326 22.1684 30.5156C24.0014 30.1036 25.5946 29.4173 26.9536 28.4433C28.6256 27.2293 29.9333 25.5568 30.8813 23.4218C31.8293 21.2918 32.2973 18.9584 32.2973 16.4374C32.2973 13.9164 31.8293 11.6048 30.8813 9.50581C29.9333 7.40681 28.6256 5.7419 26.9536 4.5019C25.5946 3.5329 24.0014 2.8341 22.1684 2.4121C20.3344 1.9851 17.48 1.77148 13.6 1.77148L0.5004 1.77169ZM9.1606 9.19939H11.3813C15.9643 9.19939 19.1088 9.77653 20.8168 10.9435C22.5308 12.1045 23.3852 14.1104 23.3852 16.9494C23.3852 19.5894 22.5838 21.4336 20.9848 22.4806C19.3858 23.5216 16.1833 24.0431 11.3813 24.0431H9.1606V9.19939Z" fill="white"/>
<path d="M64.062 0.5C56.5088 0.5 49.265 3.44353 43.924 8.68308C38.583 13.9226 35.5823 21.029 35.582 28.439C35.5823 35.849 38.583 42.9554 43.924 48.1949C49.265 53.4345 56.5088 56.378 64.062 56.378C71.615 56.3777 78.8586 53.4341 84.1994 48.1946C89.5402 42.955 92.5408 35.8488 92.541 28.439C92.5408 21.0292 89.5402 13.923 84.1994 8.68343C78.8586 3.44391 71.615 0.50026 64.062 0.5ZM64.062 8.502C66.6161 8.50187 69.1451 9.01748 71.5048 10.0194C73.8644 11.0213 76.0085 12.4899 77.8145 14.3413C79.6205 16.1928 81.0531 18.3908 82.0305 20.8098C83.008 23.2289 83.511 25.8216 83.511 28.44C83.511 31.0584 83.008 33.6511 82.0305 36.0702C81.0531 38.4892 79.6205 40.6872 77.8145 42.5387C76.0085 44.3901 73.8644 45.8587 71.5048 46.8606C69.1451 47.8625 66.6161 48.3781 64.062 48.378C61.508 48.3781 58.979 47.8625 56.6193 46.8606C54.2596 45.8587 52.1156 44.3901 50.3096 42.5387C48.5036 40.6872 47.0709 38.4892 46.0935 36.0702C45.1161 33.6511 44.613 31.0584 44.613 28.44C44.613 25.8216 45.1161 23.2289 46.0935 20.8098C47.0709 18.3908 48.5036 16.1928 50.3096 14.3413C52.1156 12.4899 54.2596 11.0213 56.6193 10.0194C58.979 9.01748 61.508 8.50187 64.062 8.502Z" fill="white"/>
<path d="M284.531 0.5C276.978 0.5 269.734 3.44353 264.393 8.68308C259.052 13.9226 256.051 21.029 256.051 28.439C256.051 35.849 259.052 42.9554 264.393 48.1949C269.734 53.4345 276.978 56.378 284.531 56.378C292.084 56.3777 299.327 53.4341 304.668 48.1946C310.009 42.955 313.01 35.8488 313.01 28.439C313.01 21.0292 310.009 13.923 304.668 8.68343C299.327 3.44391 292.084 0.50026 284.531 0.5ZM284.531 8.502C287.085 8.50187 289.614 9.01748 291.974 10.0194C294.333 11.0213 296.477 12.4899 298.283 14.3413C300.089 16.1928 301.522 18.3908 302.499 20.8098C303.477 23.2289 303.98 25.8216 303.98 28.44C303.98 31.0584 303.477 33.6511 302.499 36.0702C301.522 38.4892 300.089 40.6872 298.283 42.5387C296.477 44.3901 294.333 45.8587 291.974 46.8606C289.614 47.8625 287.085 48.3781 284.531 48.378C281.977 48.3781 279.448 47.8625 277.088 46.8606C274.728 45.8587 272.584 44.3901 270.778 42.5387C268.972 40.6872 267.54 38.4892 266.562 36.0702C265.585 33.6511 265.082 31.0584 265.082 28.44C265.082 25.8216 265.585 23.2289 266.562 20.8098C267.54 18.3908 268.972 16.1928 270.778 14.3413C272.584 12.4899 274.728 11.0213 277.088 10.0194C279.448 9.01748 281.977 8.50187 284.531 8.502Z" fill="white"/>
<path d="M141.841 1.77734H133.18V55.0433H141.841V1.77734Z" fill="white"/>
<path d="M196.532 1.77734H187.871V55.0433H196.532V1.77734Z" fill="white"/>
</g>
<defs>
<clipPath id="clip0_419_1173">
<rect width="312.107" height="55.959" fill="white" transform="translate(0.5 0.5)"/>
</clipPath>
</defs>
</svg>
