<svg width="147" height="24" viewBox="0 0 147 24" fill="none" xmlns="http://www.w3.org/2000/svg">
<g clip-path="url(#clip0_420_1254)">
<path d="M137.382 21.0851L137.422 21.084H137.342L137.382 21.0851Z" fill="white"/>
<path d="M127.886 23.9996C126.837 23.9992 125.81 23.6868 124.938 23.1019C124.065 22.517 123.385 21.6858 122.984 20.7135C122.582 19.7411 122.477 18.6714 122.682 17.6393C122.888 16.6073 123.393 15.6593 124.135 14.9153C124.878 14.1713 125.824 13.6647 126.853 13.4596C127.883 13.2544 128.95 13.3598 129.92 13.7625C130.89 14.1653 131.719 14.8473 132.302 15.7222C132.885 16.5972 133.196 17.6259 133.196 18.6782C133.195 20.0895 132.636 21.4427 131.64 22.4405C130.644 23.4382 129.294 23.999 127.886 23.9996ZM127.886 16.4696C127.451 16.4705 127.025 16.6008 126.663 16.844C126.302 17.0873 126.02 17.4326 125.853 17.8363C125.687 18.24 125.644 18.684 125.73 19.1122C125.816 19.5404 126.026 19.9336 126.334 20.242C126.643 20.5505 127.035 20.7605 127.462 20.8453C127.89 20.9301 128.333 20.8861 128.735 20.7188C129.137 20.5514 129.481 20.2682 129.723 19.9051C129.965 19.5419 130.094 19.1149 130.094 18.6782C130.093 18.0921 129.86 17.5304 129.446 17.1164C129.032 16.7023 128.471 16.4697 127.886 16.4696Z" fill="white"/>
<path d="M127.886 4.81375e-06C127.15 0.000433242 126.415 0.0439988 125.684 0.13049V3.49799C127.857 3.18105 130.073 3.3366 132.18 3.95407C134.288 4.57154 136.238 5.63645 137.899 7.07654C139.56 8.51659 140.892 10.2981 141.805 12.3C142.718 14.3019 143.191 16.4774 143.191 18.6786C143.192 19.418 143.139 20.1564 143.031 20.8878H146.391C146.704 18.2664 146.458 15.6083 145.671 13.089C144.884 10.5696 143.573 8.24626 141.824 6.27226C140.075 4.29826 137.929 2.71856 135.526 1.63737C133.124 0.556181 130.519 -0.00189095 127.886 4.81375e-06Z" fill="white"/>
<path d="M127.886 6.55664C127.147 6.55746 126.41 6.62614 125.684 6.76189V10.177C126.979 9.83965 128.335 9.80422 129.646 10.0735C130.958 10.3427 132.19 10.9095 133.25 11.7302C134.309 12.551 135.166 13.6041 135.756 14.8086C136.346 16.0131 136.654 17.3371 136.654 18.679C136.653 19.4243 136.559 20.1666 136.373 20.8882H139.779C139.912 20.1594 139.979 19.42 139.98 18.679C139.976 15.4649 138.701 12.3835 136.433 10.1108C134.166 7.83819 131.092 6.56005 127.886 6.55664Z" fill="white"/>
<path d="M64.555 6.61621H61.9316C60.5075 6.61779 59.1424 7.18559 58.1354 8.19493C57.1284 9.20427 56.5625 10.5728 56.5605 12.0002V21.0587H60.2892V12.0002C60.2897 11.5638 60.463 11.1454 60.7709 10.8369C61.0788 10.5284 61.4963 10.3548 61.9316 10.3545H64.555V6.61621Z" fill="white"/>
<path d="M72.6096 17.3214C71.9191 17.3215 71.2435 17.1162 70.6694 16.7315C70.0948 16.3469 69.6471 15.8001 69.3828 15.1604C69.1185 14.5206 69.0491 13.8167 69.1841 13.1375C69.3186 12.4583 69.6509 11.8345 70.1393 11.3448C70.6277 10.8551 71.2502 10.5216 71.9278 10.3864C72.6053 10.2513 73.3073 10.3206 73.9455 10.5855C74.5838 10.8504 75.1292 11.2992 75.5132 11.8749C75.8972 12.4506 76.1017 13.1276 76.1022 13.82C76.1007 14.7482 75.7325 15.6381 75.078 16.2945C74.4234 16.9509 73.5357 17.3202 72.6096 17.3214ZM72.6096 6.58204C71.5069 6.5806 70.4185 6.83236 69.4278 7.31797C68.4371 7.80364 67.5704 8.51025 66.8948 9.3837C66.2187 10.2571 65.7514 11.2741 65.5282 12.3567C65.3051 13.4393 65.3324 14.5587 65.6077 15.6292C65.883 16.6996 66.3992 17.6925 67.117 18.5319C67.8347 19.3713 68.7345 20.0348 69.7477 20.4715C70.7609 20.9082 71.8602 21.1065 72.9615 21.0512C74.0628 20.9959 75.1369 20.6885 76.1012 20.1525V21.0602H79.8303V13.8292V13.82C79.8284 11.9009 79.0671 10.0611 77.7134 8.70412C76.3593 7.34721 74.524 6.58401 72.6096 6.58204Z" fill="white"/>
<path d="M37.4841 16.9578C36.8244 17.7928 35.9217 18.4012 34.9015 18.6986C33.8812 18.996 32.7938 18.9676 31.7904 18.6175C30.7869 18.2674 29.917 17.6128 29.3014 16.7446C28.6858 15.8764 28.3551 14.8377 28.3551 13.7726C28.3551 12.7074 28.6858 11.6687 29.3014 10.8005C29.917 9.93237 30.7869 9.27779 31.7904 8.92768C32.7938 8.57752 33.8812 8.5492 34.9015 8.84661C35.9217 9.14401 36.8244 9.75237 37.4841 10.5873L37.5673 10.6914L39.0973 9.15769L39.0267 9.07374C38.0659 7.93225 36.7783 7.11433 35.3383 6.73072C33.8984 6.34715 32.3757 6.41641 30.9763 6.92915C29.5769 7.44193 28.3685 8.37337 27.5148 9.59747C26.661 10.8215 26.2031 12.279 26.2031 13.7726C26.2031 15.2662 26.661 16.7237 27.5148 17.9477C28.3685 19.1718 29.5769 20.1032 30.9763 20.616C32.3757 21.1288 33.8984 21.1981 35.3383 20.8144C36.7783 20.4309 38.0659 19.613 39.0267 18.4714L39.0973 18.3876L37.5673 16.8538L37.4841 16.9578Z" fill="white"/>
<path d="M17.2682 6.48633C15.9582 6.48604 14.6724 6.84066 13.547 7.51266C12.4215 8.18471 11.4981 9.14918 10.8745 10.3041C10.2508 11.4589 9.95014 12.7613 10.0042 14.0734C10.0584 15.3855 10.4652 16.6586 11.1817 17.758C11.8983 18.8573 12.8979 19.7421 14.0749 20.3188C15.2519 20.8954 16.5624 21.1425 17.8679 21.0338C19.1735 20.9252 20.4255 20.4648 21.4914 19.7014C22.5574 18.9381 23.3978 17.9002 23.9236 16.6974L23.9964 16.5307H21.5805L21.5449 16.5842C20.992 17.4302 20.2018 18.0934 19.2738 18.4903C18.3458 18.8871 17.3215 18.9999 16.3296 18.8146C15.3378 18.6292 14.4227 18.1538 13.6998 17.4483C12.9768 16.7429 12.4782 15.8387 12.2666 14.8498H24.4557L24.4701 14.7469C24.5136 14.4236 24.5358 14.0977 24.5366 13.7714C24.5343 11.8398 23.7677 9.98798 22.4051 8.62223C21.0425 7.25649 19.1951 6.48834 17.2682 6.48633ZM12.266 12.6941C12.5117 11.5472 13.1422 10.5193 14.0524 9.78206C14.9626 9.04473 16.0974 8.64254 17.2676 8.64254C18.4378 8.64254 19.5726 9.04473 20.4828 9.78206C21.393 10.5193 22.0235 11.5472 22.2692 12.6941H12.266Z" fill="white"/>
<path d="M41.1328 21.0589H43.2838V12.8713C43.2822 12.3119 43.3908 11.7577 43.6032 11.2404C43.8157 10.7231 44.1279 10.2529 44.522 9.85678C44.916 9.46064 45.3841 9.14634 45.8995 8.93187C46.415 8.71746 46.9676 8.60706 47.5256 8.60706C48.0838 8.60706 48.6364 8.71746 49.1516 8.93187C49.6673 9.14634 50.1351 9.46064 50.5292 9.85678C50.9233 10.2529 51.2354 10.7231 51.448 11.2404C51.6606 11.7577 51.7689 12.3119 51.7674 12.8713V21.0584H53.9188V12.5897H53.9111C53.8585 11.3797 53.4653 10.2094 52.7763 9.21464C52.0873 8.21984 51.1311 7.44133 50.0183 6.96949C48.9055 6.49765 47.6822 6.35173 46.4902 6.54881C45.2982 6.74585 44.1864 7.27779 43.2838 8.0828V0.143555H41.1328V21.0589Z" fill="white"/>
<path d="M2.47957 6.4858H0V8.642H2.47957V16.4848C2.48093 17.6973 2.96205 18.8598 3.81736 19.7172C4.67267 20.5746 5.83236 21.0569 7.04192 21.0583H9.29212V18.9014H7.04192C6.40278 18.9007 5.79003 18.6458 5.33811 18.1928C4.88615 17.7397 4.63191 17.1255 4.63115 16.4848V8.642H8.11315V6.4858H4.63115V1.50586H2.47957V6.4858Z" fill="white"/>
<path d="M92.2372 7.46949C91.5056 7.0698 90.7102 6.80133 89.8862 6.67615C89.8048 6.66352 89.7234 6.64917 89.6405 6.63885C89.5491 6.62728 89.4566 6.61927 89.3642 6.6112C89.1885 6.59628 89.0118 6.58653 88.8327 6.58418C88.8141 6.58418 88.7954 6.58192 88.7772 6.58192L88.7638 6.58245L88.7451 6.58192C86.8298 6.58192 84.993 7.3446 83.6389 8.70218C82.2843 10.0598 81.5234 11.9011 81.5234 13.821C81.5234 15.7409 82.2843 17.5822 83.6389 18.9398C84.993 20.2974 86.8298 21.0601 88.7451 21.0601C88.7509 21.0601 88.7552 21.059 88.7609 21.059C88.7662 21.059 88.7714 21.0601 88.7772 21.0601C89.0089 21.0601 89.2369 21.0451 89.4638 21.0228C89.4744 21.0222 89.4859 21.0205 89.4969 21.0198C90.4703 20.923 91.4136 20.6278 92.2693 20.1524V21.0601H95.9955L95.9673 0.143555H92.2372V7.46949ZM92.2372 13.8227C92.2367 14.7508 91.8685 15.6405 91.2135 16.2964C90.5584 16.9522 89.6702 17.3204 88.7446 17.3201C87.8191 17.3198 86.9313 16.9509 86.2768 16.2945C85.6222 15.6382 85.2545 14.7482 85.2545 13.8201C85.2545 12.8921 85.6222 12.002 86.2768 11.3457C86.9313 10.6894 87.8191 10.3205 88.7446 10.3202C89.6702 10.3198 90.5584 10.688 91.2135 11.3439C91.8685 11.9997 92.2367 12.8895 92.2372 13.8175V13.8227Z" fill="white"/>
<path d="M108.657 21.0319H112.384V13.8026C112.382 12.2128 111.859 10.6677 110.895 9.40524C109.931 8.14284 108.58 7.23309 107.049 6.81616C105.519 6.39928 103.894 6.49831 102.425 7.09797C100.956 7.69768 99.7253 8.76482 98.9209 10.135C98.1164 11.5052 97.7837 13.1025 97.9742 14.6808C98.1643 16.2592 98.8668 17.731 99.9738 18.8698C101.08 20.0085 102.53 20.7509 104.099 20.9827C105.668 21.2145 107.269 20.9227 108.657 20.1524V21.0319ZM105.164 17.3219C104.474 17.3218 103.799 17.1165 103.225 16.732C102.65 16.3473 102.203 15.8008 101.938 15.1612C101.674 14.5217 101.605 13.818 101.74 13.139C101.874 12.46 102.207 11.8363 102.695 11.3467C103.183 10.857 103.805 10.5235 104.482 10.3883C105.16 10.253 105.861 10.322 106.5 10.5867C107.138 10.8513 107.683 11.2997 108.067 11.875C108.451 12.4504 108.656 13.127 108.657 13.8193V13.8233C108.655 14.7512 108.287 15.6408 107.632 16.2967C106.978 16.9527 106.09 17.3213 105.164 17.3219Z" fill="white"/>
<path d="M120.063 6.58398C118.639 6.586 117.273 7.15394 116.266 8.16328C115.259 9.17262 114.692 10.541 114.689 11.9686V21.0599H118.423V11.9686C118.423 11.5324 118.595 11.1139 118.903 10.8052C119.211 10.4965 119.628 10.3228 120.063 10.3223H122.689V6.58403L120.063 6.58398Z" fill="white"/>
</g>
<defs>
<clipPath id="clip0_420_1254">
<rect width="147" height="24" fill="white"/>
</clipPath>
</defs>
</svg>
