<svg width="299" height="93" viewBox="0 0 299 93" fill="none" xmlns="http://www.w3.org/2000/svg">
<path d="M142.77 1.45117C142.77 1.45117 139.44 1.5209 137.51 1.48828C137.43 2.2982 136.5 9.63748 135.7 15.5413C134.78 21.0043 127.49 61.5293 125.02 73.6603C124.37 77.3233 122.36 87.6713 122.17 88.7053C119.85 88.9823 117.11 89.2383 115.32 89.3073C115.08 89.3153 114.68 89.3933 114.49 89.3933V91.4943C114.71 91.4853 115.87 91.5743 116.69 91.5393C118.66 91.4763 124.25 91.2113 125.31 91.2113C129.33 91.2113 132.01 91.4773 135.73 91.5513C135.78 91.5513 136.8 91.5473 137.25 91.4903V89.3673C136.94 89.3673 136.53 89.3573 136.29 89.3573C135.24 89.3903 131.37 89.0933 129.41 88.8263C129.64 87.4383 133.06 66.4503 134.7 58.0573C137.82 42.5223 139.98 31.5123 139.98 31.5123L140.56 32.8793L165.21 91.6313L169.71 91.6543C169.71 91.6543 172.28 85.2923 175.33 78.1563C175.41 77.9873 175.63 77.4763 175.94 76.7463C179.14 69.3363 195 31.7293 195 31.7293C195 31.7293 195.15 32.4063 195.4 33.6173C196.91 40.9883 202.02 67.5523 203.11 73.9613C203.62 77.2583 204.1 80.6023 204.38 82.5613C204.79 85.3353 205.06 88.0503 205.06 88.8303C204.56 88.8533 199.54 89.3073 197.64 89.3893C197.37 89.3803 196.86 89.4053 196.83 89.4103V91.5473C197.51 91.5473 198.17 91.5773 198.83 91.5623C202.71 91.4883 206.44 91.1843 210.32 91.1863C214.68 91.1903 221.75 91.5713 226.28 91.6003C226.79 91.6003 227.7 91.5553 227.7 91.5553V89.3963C227.44 89.3943 226.3 89.3383 225.88 89.3053C223.85 89.1463 220.43 88.8293 219.56 88.7713C219.56 88.7713 219 85.6683 218.26 82.0843C215.3 67.7473 206.87 24.1683 205.58 13.4453C205.14 9.75968 203.89 1.48428 203.89 1.48428L198.82 1.4827C198.82 1.4827 196.23 8.914 193.87 15.6897C192.26 20.3197 190.07 26.0357 188.4 30.4187C180.16 52.0747 170.92 72.2547 170.92 72.2547C170.92 72.2547 151.28 25.3927 150.24 22.6827C149.19 19.9717 142.77 1.45117 142.77 1.45117ZM1.58983 1.4707L1.63283 6.4238L1.54883 18.4858L2.85553 18.4488L2.99223 7.7208C2.99223 7.7205 10.1573 7.6588 11.084 7.66L24.445 7.6658L33.068 7.7088L33.082 82.3158L33.084 88.7598L32.902 88.7848C31.754 88.8738 27.337 89.1438 25.543 89.2088C25.141 89.2218 24.884 89.2318 24.84 89.2268L24.848 91.4098C25.172 91.4258 26.045 91.4468 26.16 91.4428C30.404 91.3878 36.147 91.0188 40.219 91.0228C44.356 91.0248 50.178 91.4268 53.781 91.4688C54.138 91.4708 54.561 91.4358 54.904 91.4358V89.3888L54.457 89.3928C53.309 89.3878 46.96 88.9788 46.303 88.8928C46.276 87.8918 46.158 83.0598 46.158 82.9528L46.189 7.7008L52.754 7.6834L69.883 7.6951L75.6 7.7732C75.638 8.1817 75.927 13.6158 75.922 13.7638C75.909 14.1588 76.136 18.2068 76.127 19.2028L77.482 19.2188L77.385 7.0188L77.447 1.531C72.413 1.668 59.584 1.8404 39.674 1.8299C22.599 1.8194 6.14383 1.6764 1.58983 1.4707ZM81.3358 1.49023L81.3568 3.62703C82.0328 3.66373 86.0068 4.01533 86.9728 4.06253C87.7438 4.15693 88.8198 4.25353 89.5898 4.32813C89.5898 5.01223 89.6018 9.73293 89.6128 11.596C89.7418 29.255 89.6318 68.283 89.5798 82.092C89.5638 86.085 89.5528 88.658 89.5528 88.658C89.0658 88.804 87.9698 88.859 86.7848 88.939C85.7718 89.008 82.1418 89.313 81.3318 89.33V91.467C81.6678 91.467 82.2838 91.538 82.6348 91.535C86.7438 91.536 92.4568 91.026 96.6658 91.029C100.92 91.032 106.6 91.55 109.95 91.551L109.94 91.553C110.23 91.557 110.92 91.481 111.21 91.482V89.346H110.92C110.79 89.318 106.47 89.136 105.42 89.027C104.87 88.992 102.49 88.786 102.46 88.707C102.45 88.665 102.44 88.026 102.44 86.961C102.45 85.95 102.45 84.269 102.45 82.447C102.46 68.518 102.5 27.149 102.51 11.336C102.51 8.27993 102.52 5.79683 102.52 4.46483C103.45 4.40603 107.25 4.00873 108.61 3.88873C108.67 3.88283 110.47 3.77923 111.21 3.73443V1.50783C106.56 1.50613 100.407 1.86953 95.8688 1.86723C91.1228 1.86433 85.2758 1.49198 81.3358 1.49023ZM296.536 1.5508C296.536 1.5508 296.046 1.5529 295.136 1.5547C292.026 1.5681 284.066 1.6265 274.756 1.6777C269.036 1.7109 264.566 1.7568 258.676 1.7539C254.546 1.8023 248.766 1.9615 245.196 1.9551C239.496 1.9458 234.846 1.5945 232.316 1.584C231.116 1.5787 230.446 1.6239 230.116 1.6035C230.136 1.6338 230.136 3.7129 230.136 3.7129C230.356 3.7513 230.796 3.8003 231.206 3.791C232.636 3.8872 235.316 4.1037 236.676 4.2832C236.946 4.3327 237.406 4.4086 238.686 4.5508C238.676 5.0239 238.746 10.3775 238.736 13.594C238.736 16.574 238.706 83.064 238.706 83.064C238.706 83.172 238.556 88.411 238.556 88.834C236.296 89.221 231.956 89.459 230.476 89.465H230.036V91.58C230.246 91.579 231.216 91.617 231.766 91.617C234.156 91.616 240.316 91.236 246.606 91.232C251.016 91.228 255.866 91.393 260.776 91.463C266.826 91.547 272.946 91.551 278.446 91.629C287.516 91.757 294.866 91.768 297.256 91.771C297.256 91.771 297.546 74.948 297.546 73.592L296.236 73.607C296.236 75.038 295.706 80.367 295.686 80.6C295.516 82.606 295.336 84.708 295.196 85.744C295.196 85.744 294.556 85.795 294.246 85.789C292.756 85.761 287.996 85.934 287.896 85.934L266.666 85.943L251.756 85.693L251.656 81.557L251.646 49.445C254.306 49.355 258.366 49.214 260.836 49.219C262.936 49.223 267.886 49.105 270.656 49.111C277.386 49.123 283.366 49.166 283.846 49.18C284.956 49.212 287.016 49.28 287.796 49.328C287.826 49.611 287.916 50.053 287.926 50.178C288.326 52.637 288.546 54.34 288.816 56.754C288.856 56.971 288.876 57.181 288.906 57.379H290.436C290.436 57.379 290.476 56.516 290.456 55.979C290.426 54.086 290.306 50.31 290.306 46.125C290.296 43.224 290.466 38.789 290.486 36.656C290.496 36.079 290.426 35.669 290.426 35.504L289.026 35.531C289.016 35.992 288.906 36.672 288.906 36.672C288.786 38.262 288.336 40.294 287.976 42.438C287.876 42.705 287.806 43.078 287.806 43.078C287.646 43.132 283.256 43.366 282.866 43.363C282.716 43.362 276.326 43.541 276.216 43.541L251.656 43.449L251.696 8.039C251.696 8.0391 254.816 7.9289 255.686 7.9336C259.226 7.9342 264.986 7.902 270.856 7.9102C279.446 7.9206 287.786 7.9741 287.806 7.9863C287.856 8.0108 290.396 8.0461 290.446 8.0898C290.506 8.1376 293.686 8.2327 294.466 8.2578C294.466 8.2578 294.526 8.5214 294.566 8.8535C294.916 12.587 295.206 17.021 295.336 18.592L295.346 19.221L296.656 19.217C296.656 16.918 296.536 9.8774 296.516 5.398C296.506 3.9593 296.536 2.7877 296.536 2.1211V1.5508Z" fill="white"/>
</svg>
